<svg width="7" height="15" viewBox="0 0 7 15" fill="none" xmlns="http://www.w3.org/2000/svg">
<path d="M3.64807 14.3734V1.5347L5.90435 3.79098C5.97793 3.86456 6.07296 3.90134 6.17106 3.90134C6.26916 3.90134 6.36419 3.86456 6.43777 3.79098C6.58492 3.64383 6.58492 3.40778 6.43777 3.26063L3.54077 0.363637C3.39976 0.222619 3.15144 0.222619 3.01042 0.363637L0.110362 3.26063C-0.0367873 3.40778 -0.0367873 3.64383 0.110362 3.79098C0.257511 3.93813 0.493562 3.93813 0.640711 3.79098L2.897 1.5347V14.3734C2.897 14.5819 3.0656 14.7505 3.27407 14.7505C3.47946 14.7474 3.64807 14.5788 3.64807 14.3734Z" fill="black"/>
</svg>
