<svg width="7" height="15" viewBox="0 0 7 15" fill="none" xmlns="http://www.w3.org/2000/svg">
<path d="M3.45919 14.6367C3.53276 14.7103 3.6278 14.7471 3.7259 14.7471C3.824 14.7471 3.91903 14.7103 3.99261 14.6367L6.8896 11.7397C7.03675 11.5926 7.03675 11.3565 6.8896 11.2094C6.74245 11.0622 6.5064 11.0622 6.35925 11.2094L4.10297 13.4657V0.626917C4.10297 0.418456 3.93436 0.249847 3.7259 0.249847C3.51744 0.249847 3.34883 0.418456 3.34883 0.626917V13.4657L1.09561 11.2094C0.948458 11.0622 0.712406 11.0622 0.565257 11.2094C0.418108 11.3565 0.418108 11.5926 0.565257 11.7397L3.45919 14.6367Z" fill="black"/>
</svg>
